<?xml version="1.0" encoding="UTF-8" standalone="no"?>
<svg width="40px" height="36px" viewBox="0 0 40 36" version="1.1" xmlns="http://www.w3.org/2000/svg" xmlns:xlink="http://www.w3.org/1999/xlink" xmlns:sketch="http://www.bohemiancoding.com/sketch/ns">
    <!-- Generator: Sketch 3.0.1 (7597) - http://www.bohemiancoding.com/sketch -->
    <title>Shape</title>
    <description>Created with Sketch.</description>
    <defs></defs>
    <g id="Page-1" stroke="none" stroke-width="1" fill="none" fill-rule="evenodd" sketch:type="MSPage">
        <g id="Medium-screen" sketch:type="MSArtboardGroup" transform="translate(-28.000000, -330.000000)" fill="#FFFFFF">
            <g id="Top-bar" sketch:type="MSLayerGroup">
                <g id="mezzi" transform="translate(0.000000, 193.000000)" sketch:type="MSShapeGroup">
                    <path d="M64.3700005,149.349991 L61.0912009,140.24028 C60.478001,138.496408 59.1380012,137.012481 56.6020015,137 L51.9780021,137 L44.0752031,137 L39.3708037,137 C36.8464041,137.012481 35.5064042,138.496408 34.8820043,140.24028 L31.6024047,149.349991 C30.3004049,149.530748 27.9960052,151.176925 28.0000052,154.29541 L28.0000052,165.8944 L31.1996048,165.8944 L31.1996048,169.596901 C31.1916048,174.161439 37.195204,174.107212 37.193604,169.596901 L37.193604,165.8944 L48.0000026,165.8944 L58.7792012,165.8944 L58.7792012,169.596901 C58.7924012,174.107212 64.7960004,174.161439 64.8000004,169.596901 L64.8000004,165.8944 L68,165.8944 L68,154.29541 C67.99,151.176925 65.6840003,149.530748 64.3700005,149.349991 L64.3700005,149.349991 Z M35.0002288,158.999988 C33.3384584,159.00462 31.9930918,157.657931 32.0000267,156.001732 C31.9930918,154.334162 33.3384584,152.98621 35.0002288,153.000106 C36.656798,152.98621 38.0021645,154.334162 37.9999974,156.001732 C38.0021645,157.657931 36.6563646,159.004199 35.0002288,158.999988 L35.0002288,158.999988 Z M48,150 L47.9731661,150 L35,150 L37.4759235,142.776772 C37.7747004,141.751445 38.2384855,141.017768 39.3338673,141 L47.9731661,141 L48,141 L56.6669337,141 C57.7454943,141.017768 58.2104809,141.751011 58.523676,142.776772 L61,150 L48,150 L48,150 Z M62.0142344,158.999988 C60.3488138,159.00462 59.0090582,157.657931 59,156.001732 C59.0090582,154.334162 60.3488138,152.98621 62.0142344,153.000106 C63.6511862,152.98621 64.9896477,154.334162 65,156.001732 C64.9896477,157.657931 63.6511862,159.004199 62.0142344,158.999988 L62.0142344,158.999988 Z" id="Shape"></path>
                </g>
            </g>
        </g>
    </g>
</svg>