<?xml version="1.0" encoding="UTF-8" standalone="no"?>
<svg width="35px" height="37px" viewBox="0 0 35 37" version="1.1" xmlns="http://www.w3.org/2000/svg" xmlns:xlink="http://www.w3.org/1999/xlink" xmlns:sketch="http://www.bohemiancoding.com/sketch/ns">
    <!-- Generator: Sketch 3.0.1 (7597) - http://www.bohemiancoding.com/sketch -->
    <title>family</title>
    <description>Created with Sketch.</description>
    <defs></defs>
    <g id="Page-1" stroke="none" stroke-width="1" fill="none" fill-rule="evenodd" sketch:type="MSPage">
        <g id="Medium-screen" sketch:type="MSArtboardGroup" transform="translate(-28.000000, -206.000000)" fill="#FFFFFF">
            <g id="Top-bar" sketch:type="MSLayerGroup">
                <g id="family-tile" transform="translate(28.000000, 206.000000)" sketch:type="MSShapeGroup">
                    <g id="family">
                        <circle id="Oval" cx="32" cy="19" r="3"></circle>
                        <path d="M32.1428571,22.8860759 L28.3928571,22.8860759 L26.4407143,20.9487595 L24.1810714,10.7103291 C23.8003571,9.16075949 22.3889286,8 20.7142857,8 L16.4285714,8 C14.6546429,8 13.1760714,9.30253165 12.9057143,10.9906835 L12.0464286,15.0684051 L11.3417857,12.1964557 C10.9864286,10.6121519 9.55642857,9.41772152 7.85714286,9.41772152 L3.57142857,9.41772152 C1.60714286,9.41772152 0,11.0126582 0,12.9620253 L0,20.4050633 C0,21.8507848 0.885,23.0997975 2.14285714,23.649519 L2.14285714,33.164557 C2.14285714,34.7240506 3.42857143,36 5,36 L6.42857143,36 C8,36 9.28571429,34.7240506 9.28571429,33.164557 L9.28571429,17.7468354 L10.3164286,22.2218734 C10.5203571,23.1079494 11.265,23.6144304 12.1432143,23.6144304 C13.0360714,23.6144304 13.7464286,23.1036962 13.9303571,22.2133671 L15,17.0379747 L15,33.164557 C15,34.7240506 16.2857143,36 17.8571429,36 L19.2857143,36 C20.8571429,36 22.1428571,34.7240506 22.1428571,33.164557 L22.1428571,16.6835443 L23.1625,21.3655696 C23.3239286,22.1286582 23.9128571,22.6932658 24.1110714,22.8903291 L27.8571429,26.6075949 L27.8571429,33.5189873 C27.8571429,34.8835443 28.9821429,36 30.3571429,36 L31.0714286,36 C32.4464286,36 33.5714286,34.8835443 33.5714286,33.5189873 L33.5714286,30.6523544 C34.4232143,30.1600506 35,29.2459747 35,28.2025316 L35,25.721519 C35,24.1620253 33.7142857,22.8860759 32.1428571,22.8860759 L32.1428571,22.8860759 Z" id="Shape"></path>
                        <circle id="Oval" cx="6" cy="4" r="3"></circle>
                        <circle id="Oval" cx="18" cy="3" r="3"></circle>
                    </g>
                </g>
            </g>
        </g>
    </g>
</svg>