<?xml version="1.0" encoding="UTF-8" standalone="no"?>
<svg width="36px" height="34px" viewBox="0 0 36 34" version="1.1" xmlns="http://www.w3.org/2000/svg" xmlns:xlink="http://www.w3.org/1999/xlink" xmlns:sketch="http://www.bohemiancoding.com/sketch/ns">
    <!-- Generator: Sketch 3.0.1 (7597) - http://www.bohemiancoding.com/sketch -->
    <title>map</title>
    <description>Created with Sketch.</description>
    <defs></defs>
    <g id="Page-1" stroke="none" stroke-width="1" fill="none" fill-rule="evenodd" sketch:type="MSPage">
        <g id="Medium-screen" sketch:type="MSArtboardGroup" transform="translate(-27.000000, -396.000000)">
            <g id="Top-bar" sketch:type="MSLayerGroup">
                <g id="spostamenti" transform="translate(27.000000, 396.000000)" sketch:type="MSShapeGroup">
                    <g id="map">
                        <path d="M9,30.6571844 L9.751,31 L9.751,12.3935702 L9,12 L9,30.6571844 Z" id="Shape" fill="#FFFFFF"></path>
                        <path d="M18,9.24010966 L18.0435213,29 L18.5628091,28.7721794 L19,28.8364607 L19,9.11721889 L18.644906,9 L18,9.24010966 Z" id="Shape" fill="#FFFFFF"></path>
                        <path d="M28.967,12 L28,12.4836859 L28,32 L28.967,31.4759304 L28.967,12 Z" id="Shape" fill="#FFFFFF"></path>
                        <path d="M19.3483678,9.01895022 L17.000443,8 L7.5608993,12.0955407 L1,8.31771695 L1,29.1601369 L7.66899244,33 L16.9269042,28.9965784 L17.0730958,28.9965784 L19.3253316,29.9600692 L26.3292355,33 L33,29.1601369 L33,8.31771695 L26.4373287,12.0955407 L24.0796578,11.0728305" id="Shape"></path>
                        <path d="M27.4270367,9.71704784 L25.8299015,9.05471952 L25.1539839,10.7822169 L27.5362578,11.7693583 L34.1674127,8.12292338 L34.1674127,28.2404655 L27.4270367,31.9467822 L20.3500448,29.012577 L18.0743062,28.0825955 L17.9265891,28.0825955 L8.57206804,31.9467822 L1.83348254,28.2404655 L1.83348254,8.12292338 L8.46284691,11.7693583 L18.0008953,7.8162563 L20.3733214,8.79976848 L19.4234557,6.39814786 L18.0008953,5.80840347 L8.57206804,9.71704784 L0,5 L0,29.3455558 L8.46284691,34 L18.0008953,30.0459907 L27.5362578,34 L36,29.3455558 L36,5 L27.4270367,9.71704784 Z" id="Shape" fill="#FFFFFF"></path>
                        <path d="M22.5,0 C20.5685591,0 19,1.70410099 19,3.80652757 C19,4.19752763 19.0707241,4.56655112 19.1709165,4.92183923 L19.1566033,4.92183923 L22.5,14 L25.9259081,4.60775721 L25.9191725,4.60775721 C25.9705316,4.34953234 26,4.08215057 26,3.80652757 C26,1.70410099 24.4331248,0 22.5,0 L22.5,0 Z M22.4995788,5 C21.6722831,5 21,4.32771693 21,3.50042123 C21,2.67312553 21.6722831,2 22.4995788,2 C23.3268745,2 24,2.67228307 24,3.50042123 C24,4.32771693 23.3277169,5 22.4995788,5 L22.4995788,5 Z" id="Shape" fill="#FFFFFF"></path>
                    </g>
                </g>
            </g>
        </g>
    </g>
</svg>