<?xml version="1.0" encoding="UTF-8" standalone="no"?>
<svg width="27px" height="27px" viewBox="0 0 27 27" version="1.1" xmlns="http://www.w3.org/2000/svg" xmlns:xlink="http://www.w3.org/1999/xlink" xmlns:sketch="http://www.bohemiancoding.com/sketch/ns">
    <!-- Generator: Sketch 3.0.1 (7597) - http://www.bohemiancoding.com/sketch -->
    <title>Oval 5 + Car</title>
    <description>Created with Sketch.</description>
    <defs></defs>
    <g id="Page-1" stroke="none" stroke-width="1" fill="none" fill-rule="evenodd" sketch:type="MSPage">
        <g id="Medium-screen" sketch:type="MSArtboardGroup" transform="translate(-114.000000, -95.000000)">
            <g id="Tabella" sketch:type="MSLayerGroup" transform="translate(113.000000, 85.000000)">
                <g id="Audi-a1" sketch:type="MSShapeGroup">
                    <g id="Oval-5-+-Car" transform="translate(1.000000, 10.000000)">
                        <circle id="Oval-5" fill="#D8D8D8" cx="13.5" cy="13.5" r="13.5"></circle>
                        <path d="M20.5480002,10.8027742 L19.2364804,7.26010898 C18.9912004,6.58193637 18.4552005,6.00485365 17.4408006,6 L15.5912008,6 L12.4300812,6 L10.5483215,6 C9.53856162,6.00485365 9.00256169,6.58193637 8.75280172,7.26010898 L7.44096189,10.8027742 C6.92016196,10.8730685 5.99840208,11.5132488 6.00000208,12.7259928 L6.00000208,17.236711 L7.27984191,17.236711 L7.27984191,18.6765725 C7.27664191,20.4516709 9.6780816,20.4305826 9.6774416,18.6765725 L9.6774416,17.236711 L14.000001,17.236711 L18.3116805,17.236711 L18.3116805,18.6765725 C18.3169605,20.4305826 20.7184002,20.4516709 20.7200002,18.6765725 L20.7200002,17.236711 L22,17.236711 L22,12.7259928 C21.996,11.5132488 21.0736001,10.8730685 20.5480002,10.8027742 L20.5480002,10.8027742 Z M8.8000915,14.5555509 C8.13538334,14.5573523 7.59723672,14.03364 7.60001068,13.3895623 C7.59723672,12.7410631 8.13538334,12.2168595 8.8000915,12.2222636 C9.4627192,12.2168595 10.0008658,12.7410631 9.99999895,13.3895623 C10.0008658,14.03364 9.46254583,14.5571885 8.8000915,14.5555509 L8.8000915,14.5555509 Z M13.6,11.4444444 L13.5892665,11.4444444 L8.4,11.4444444 L9.39036939,8.32329652 C9.50988016,7.88025381 9.69539419,7.56323297 10.1335469,7.55555556 L13.5892665,7.55555556 L13.6,7.55555556 L17.0667735,7.55555556 C17.4981977,7.56323297 17.6841924,7.88006656 17.8094704,8.32329652 L18.8,11.4444444 L13.6,11.4444444 L13.6,11.4444444 Z M19.2056937,14.5555509 C18.5395255,14.5573523 18.0036233,14.03364 18,13.3895623 C18.0036233,12.7410631 18.5395255,12.2168595 19.2056937,12.2222636 C19.8604745,12.2168595 20.3958591,12.7410631 20.4,13.3895623 C20.3958591,14.03364 19.8604745,14.5571885 19.2056937,14.5555509 L19.2056937,14.5555509 Z" id="Car" fill="#313131"></path>
                    </g>
                </g>
            </g>
        </g>
    </g>
</svg>