<?xml version="1.0" encoding="UTF-8" standalone="no"?>
<svg width="27px" height="27px" viewBox="0 0 27 27" version="1.1" xmlns="http://www.w3.org/2000/svg" xmlns:xlink="http://www.w3.org/1999/xlink" xmlns:sketch="http://www.bohemiancoding.com/sketch/ns">
    <!-- Generator: Sketch 3.0.1 (7597) - http://www.bohemiancoding.com/sketch -->
    <title>tabella-bus</title>
    <description>Created with Sketch.</description>
    <defs></defs>
    <g id="Page-1" stroke="none" stroke-width="1" fill="none" fill-rule="evenodd" sketch:type="MSPage">
        <g id="Medium-screen" sketch:type="MSArtboardGroup" transform="translate(-114.000000, -140.000000)">
            <g id="Tabella" sketch:type="MSLayerGroup" transform="translate(113.000000, 85.000000)">
                <g id="Autobus" transform="translate(0.000000, 47.000000)" sketch:type="MSShapeGroup">
                    <g id="tabella-bus" transform="translate(1.000000, 8.000000)">
                        <circle id="Oval-4" fill="#D8D8D8" cx="13.5" cy="13.5" r="13.5"></circle>
                        <g id="public-transportation-icon" transform="translate(8.000000, 3.000000)" fill="#313131">
                            <path d="M4.50006362,1 C4.22482929,0.999003304 4.00056955,0.774746793 4,0.500085962 C4.00056955,0.221438348 4.22482929,-0.00296054846 4.50006362,2.95383543e-05 C4.77800331,-0.00296054846 5.00212067,0.221438348 4.99998486,0.500085962 C5.00212067,0.774746793 4.77786093,0.999003304 4.50006362,1 L4.50006362,1 L4.50006362,1 Z" id="Shape"></path>
                            <path d="M6.50000569,1 C6.77562898,0.999003304 7,0.774746793 7,0.500085962 C7,0.221438348 6.77562898,-0.00281816337 6.50000569,2.95383543e-05 C6.22238926,-0.00296054846 5.9981606,0.221438348 6.00001138,0.500085962 C5.9981606,0.774746793 6.22238926,0.999003304 6.50000569,1 L6.50000569,1 L6.50000569,1 Z" id="Shape"></path>
                            <path d="M8.58284683,15.6919253 C9.3892266,15.5330434 10.1932892,14.5335999 10.1914686,13.3138036 L10.1914686,4.40856379 C10.1934547,3.15302396 9.30183569,1.99862648 8.09408667,2.00000123 L5.50844117,2.00000123 L2.91402347,2.00000123 C1.69899187,1.99862648 0.807372856,3.15302396 0.808531447,4.40856379 L0.808531447,13.3138036 C0.807372856,14.5335999 1.61160096,15.5332398 2.41715317,15.6919253 L0,20 L1.39792356,20 L3.12455612,16.9814411 L5.5,16.9814411 L7.87527836,16.9814411 L9.61018658,20 L11,20 L8.58284683,15.6919253 L8.58284683,15.6919253 Z M4,3.53988278 C4.00036386,3.24615345 4.17628866,3.00413703 4.3793208,3 L5.49963614,3 L6.62013341,3 C6.82334748,3.00413703 7,3.24615345 7,3.53988278 L7,4.460114 C7,4.75306763 6.83335355,5.00103103 6.62013341,4.99999678 L5.49981807,4.99999678 L4.37950273,4.99999678 C4.16719224,5.00103103 4.00054579,4.75306763 4.00018193,4.460114 L4.00018193,3.53988278 L4,3.53988278 Z M2.99533514,14 C2.44634089,13.9958726 1.99874636,13.5483207 2.00000264,12.9954309 C1.99874636,12.4443355 2.44634089,11.997322 2.99533514,12.0000137 C3.54989291,11.9971425 3.99748744,12.4443355 4,12.9954309 C3.99766691,13.5485002 3.54989291,13.9958726 2.99533514,14 L2.99533514,14 Z M3.03193169,8 C2.4629268,7.99597451 1.99886666,7.53591796 2.00000208,6.78027508 L2.00000208,5.21972492 C2.00405713,4.56874491 2.35992849,4.00134183 3.03193169,4 L5.49999848,4 L7.96790306,4 C8.64071727,4.00134183 8.99675083,4.56874491 8.99999487,5.21972492 L8.99999487,6.78027508 C9.0017791,7.53591796 8.53771896,7.9961662 7.96790306,8 L5.49999848,8 L3.03193169,8 L3.03193169,8 Z M7.00000436,12.9954309 C6.99838929,12.4443355 7.44540492,11.997322 7.99506724,12.0000137 C8.54957478,11.9971425 8.99712876,12.4443355 9,12.9954309 C8.99712876,13.5483207 8.54957478,13.9956932 7.99506724,14 C7.44540492,13.9956932 6.99838929,13.5483207 7.00000436,12.9954309 L7.00000436,12.9954309 Z" id="Shape"></path>
                        </g>
                    </g>
                </g>
            </g>
        </g>
    </g>
</svg>